<svg xmlns="http://www.w3.org/2000/svg" viewBox="0 0 1400 520"><defs><linearGradient id="s"><stop stop-color="#10284a"/><stop offset="1" stop-color="#070d1b"/></linearGradient><linearGradient id="r"><stop stop-color="#4de0ff"/><stop offset=".5" stop-color="#f4c95d"/><stop offset="1" stop-color="#ff4f92"/></linearGradient></defs><rect width="1400" height="520" rx="42" fill="url(#s)"/><circle cx="1190" cy="90" r="48" fill="#f4c95d"/><path d="M0 385C190 315 290 432 480 352S835 410 1040 334S1230 350 1400 312V520H0Z" fill="#112c32"/><path d="M85 345C260 250 388 405 565 320S870 250 1042 330S1235 310 1320 270" fill="none" stroke="url(#r)" stroke-width="8" stroke-dasharray="18 18"/><g font-family="Arial" text-anchor="middle" fill="#fff"><text x="105" y="330" font-size="42">🏠</text><text x="105" y="395">Doncaster · 05:00</text><text x="325" y="315" font-size="42">🚗</text><text x="325" y="380">Maple · 08:00</text><text x="555" y="320" font-size="42">🚌</text><text x="555" y="385">Heathrow T3</text><text x="790" y="280" font-size="46">✈</text><text x="790" y="350">BA852 · 10:15</text><text x="1035" y="330" font-size="42">🇨🇿</text><text x="1035" y="395">Prague · 13:15</text><text x="1300" y="267" font-size="42">🏡</text><text x="1300" y="335">Airbnb · 15:00</text></g></svg>